<svg width="260" height="64" viewBox="0 0 260 64" fill="none" xmlns="http://www.w3.org/2000/svg">
<path fill-rule="evenodd" clip-rule="evenodd" d="M16.5 48C25.3366 48 32.5 40.8366 32.5 32C32.5 23.1635 25.3366 16 16.5 16C7.66343 16 0.5 23.1635 0.5 32C0.5 40.8366 7.66343 48 16.5 48ZM21.4915 23.4535C21.7344 22.5904 20.8969 22.0801 20.132 22.625L9.4545 30.2317C8.62498 30.8226 8.75546 32 9.6505 32H12.4622V31.9782H17.942L13.477 33.5537L11.5086 40.5466C11.2656 41.4096 12.1031 41.9199 12.868 41.375L23.5455 33.7684C24.3751 33.1774 24.2445 32 23.3496 32H19.0857L21.4915 23.4535Z" fill="#455A64"/>
<path d="M53.4727 37.2578V40H44.3906V37.2578H53.4727ZM45.5391 22.9375V40H42.0234V22.9375H45.5391ZM52.2891 29.8867V32.5586H44.3906V29.8867H52.2891ZM53.4609 22.9375V25.6914H44.3906V22.9375H53.4609ZM58.875 22V40H55.4883V22H58.875ZM65.2266 27.3203V40H61.8398V27.3203H65.2266ZM61.6289 24.0156C61.6289 23.5234 61.8008 23.1172 62.1445 22.7969C62.4883 22.4766 62.9492 22.3164 63.5273 22.3164C64.0977 22.3164 64.5547 22.4766 64.8984 22.7969C65.25 23.1172 65.4258 23.5234 65.4258 24.0156C65.4258 24.5078 65.25 24.9141 64.8984 25.2344C64.5547 25.5547 64.0977 25.7148 63.5273 25.7148C62.9492 25.7148 62.4883 25.5547 62.1445 25.2344C61.8008 24.9141 61.6289 24.5078 61.6289 24.0156ZM74.2266 27.3203V29.7109H66.8438V27.3203H74.2266ZM68.6719 24.1914H72.0469V36.1797C72.0469 36.5469 72.0938 36.8281 72.1875 37.0234C72.2891 37.2188 72.4375 37.3555 72.6328 37.4336C72.8281 37.5039 73.0742 37.5391 73.3711 37.5391C73.582 37.5391 73.7695 37.5312 73.9336 37.5156C74.1055 37.4922 74.25 37.4688 74.3672 37.4453L74.3789 39.9297C74.0898 40.0234 73.7773 40.0977 73.4414 40.1523C73.1055 40.207 72.7344 40.2344 72.3281 40.2344C71.5859 40.2344 70.9375 40.1133 70.3828 39.8711C69.8359 39.6211 69.4141 39.2227 69.1172 38.6758C68.8203 38.1289 68.6719 37.4102 68.6719 36.5195V24.1914ZM81.9844 40.2344C81 40.2344 80.1172 40.0781 79.3359 39.7656C78.5547 39.4453 77.8906 39.0039 77.3438 38.4414C76.8047 37.8789 76.3906 37.2266 76.1016 36.4844C75.8125 35.7344 75.668 34.9375 75.668 34.0938V33.625C75.668 32.6641 75.8047 31.7852 76.0781 30.9883C76.3516 30.1914 76.7422 29.5 77.25 28.9141C77.7656 28.3281 78.3906 27.8789 79.125 27.5664C79.8594 27.2461 80.6875 27.0859 81.6094 27.0859C82.5078 27.0859 83.3047 27.2344 84 27.5312C84.6953 27.8281 85.2773 28.25 85.7461 28.7969C86.2227 29.3438 86.582 30 86.8242 30.7656C87.0664 31.5234 87.1875 32.3672 87.1875 33.2969V34.7031H77.1094V32.4531H83.8711V32.1953C83.8711 31.7266 83.7852 31.3086 83.6133 30.9414C83.4492 30.5664 83.1992 30.2695 82.8633 30.0508C82.5273 29.832 82.0977 29.7227 81.5742 29.7227C81.1289 29.7227 80.7461 29.8203 80.4258 30.0156C80.1055 30.2109 79.8438 30.4844 79.6406 30.8359C79.4453 31.1875 79.2969 31.6016 79.1953 32.0781C79.1016 32.5469 79.0547 33.0625 79.0547 33.625V34.0938C79.0547 34.6016 79.125 35.0703 79.2656 35.5C79.4141 35.9297 79.6211 36.3008 79.8867 36.6133C80.1602 36.9258 80.4883 37.168 80.8711 37.3398C81.2617 37.5117 81.7031 37.5977 82.1953 37.5977C82.8047 37.5977 83.3711 37.4805 83.8945 37.2461C84.4258 37.0039 84.8828 36.6406 85.2656 36.1562L86.9062 37.9375C86.6406 38.3203 86.2773 38.6875 85.8164 39.0391C85.3633 39.3906 84.8164 39.6797 84.1758 39.9062C83.5352 40.125 82.8047 40.2344 81.9844 40.2344ZM101.941 33.918H97.5938V31.1758H101.941C102.613 31.1758 103.16 31.0664 103.582 30.8477C104.004 30.6211 104.312 30.3086 104.508 29.9102C104.703 29.5117 104.801 29.0625 104.801 28.5625C104.801 28.0547 104.703 27.582 104.508 27.1445C104.312 26.707 104.004 26.3555 103.582 26.0898C103.16 25.8242 102.613 25.6914 101.941 25.6914H98.8125V40H95.2969V22.9375H101.941C103.277 22.9375 104.422 23.1797 105.375 23.6641C106.336 24.1406 107.07 24.8008 107.578 25.6445C108.086 26.4883 108.34 27.4531 108.34 28.5391C108.34 29.6406 108.086 30.5938 107.578 31.3984C107.07 32.2031 106.336 32.8242 105.375 33.2617C104.422 33.6992 103.277 33.918 101.941 33.918ZM113.93 30.0859V40H110.555V27.3203H113.73L113.93 30.0859ZM117.75 27.2383L117.691 30.3672C117.527 30.3438 117.328 30.3242 117.094 30.3086C116.867 30.2852 116.66 30.2734 116.473 30.2734C115.996 30.2734 115.582 30.3359 115.23 30.4609C114.887 30.5781 114.598 30.7539 114.363 30.9883C114.137 31.2227 113.965 31.5078 113.848 31.8438C113.738 32.1797 113.676 32.5625 113.66 32.9922L112.98 32.7812C112.98 31.9609 113.062 31.207 113.227 30.5195C113.391 29.8242 113.629 29.2188 113.941 28.7031C114.262 28.1875 114.652 27.7891 115.113 27.5078C115.574 27.2266 116.102 27.0859 116.695 27.0859C116.883 27.0859 117.074 27.1016 117.27 27.1328C117.465 27.1562 117.625 27.1914 117.75 27.2383ZM118.453 33.7891V33.543C118.453 32.6133 118.586 31.7578 118.852 30.9766C119.117 30.1875 119.504 29.5039 120.012 28.9258C120.52 28.3477 121.145 27.8984 121.887 27.5781C122.629 27.25 123.48 27.0859 124.441 27.0859C125.402 27.0859 126.258 27.25 127.008 27.5781C127.758 27.8984 128.387 28.3477 128.895 28.9258C129.41 29.5039 129.801 30.1875 130.066 30.9766C130.332 31.7578 130.465 32.6133 130.465 33.543V33.7891C130.465 34.7109 130.332 35.5664 130.066 36.3555C129.801 37.1367 129.41 37.8203 128.895 38.4062C128.387 38.9844 127.762 39.4336 127.02 39.7539C126.277 40.0742 125.426 40.2344 124.465 40.2344C123.504 40.2344 122.648 40.0742 121.898 39.7539C121.156 39.4336 120.527 38.9844 120.012 38.4062C119.504 37.8203 119.117 37.1367 118.852 36.3555C118.586 35.5664 118.453 34.7109 118.453 33.7891ZM121.828 33.543V33.7891C121.828 34.3203 121.875 34.8164 121.969 35.2773C122.062 35.7383 122.211 36.1445 122.414 36.4961C122.625 36.8398 122.898 37.1094 123.234 37.3047C123.57 37.5 123.98 37.5977 124.465 37.5977C124.934 37.5977 125.336 37.5 125.672 37.3047C126.008 37.1094 126.277 36.8398 126.48 36.4961C126.684 36.1445 126.832 35.7383 126.926 35.2773C127.027 34.8164 127.078 34.3203 127.078 33.7891V33.543C127.078 33.0273 127.027 32.543 126.926 32.0898C126.832 31.6289 126.68 31.2227 126.469 30.8711C126.266 30.5117 125.996 30.2305 125.66 30.0273C125.324 29.8242 124.918 29.7227 124.441 29.7227C123.965 29.7227 123.559 29.8242 123.223 30.0273C122.895 30.2305 122.625 30.5117 122.414 30.8711C122.211 31.2227 122.062 31.6289 121.969 32.0898C121.875 32.543 121.828 33.0273 121.828 33.543ZM135.914 29.7578V44.875H132.539V27.3203H135.668L135.914 29.7578ZM143.941 33.5195V33.7656C143.941 34.6875 143.832 35.543 143.613 36.332C143.402 37.1211 143.09 37.8086 142.676 38.3945C142.262 38.9727 141.746 39.4258 141.129 39.7539C140.52 40.0742 139.816 40.2344 139.02 40.2344C138.246 40.2344 137.574 40.0781 137.004 39.7656C136.434 39.4531 135.953 39.0156 135.562 38.4531C135.18 37.8828 134.871 37.2227 134.637 36.4727C134.402 35.7227 134.223 34.918 134.098 34.0586V33.4141C134.223 32.4922 134.402 31.6484 134.637 30.8828C134.871 30.1094 135.18 29.4414 135.562 28.8789C135.953 28.3086 136.43 27.8672 136.992 27.5547C137.562 27.2422 138.23 27.0859 138.996 27.0859C139.801 27.0859 140.508 27.2383 141.117 27.543C141.734 27.8477 142.25 28.2852 142.664 28.8555C143.086 29.4258 143.402 30.1055 143.613 30.8945C143.832 31.6836 143.941 32.5586 143.941 33.5195ZM140.555 33.7656V33.5195C140.555 32.9805 140.508 32.4844 140.414 32.0312C140.328 31.5703 140.188 31.168 139.992 30.8242C139.805 30.4805 139.555 30.2148 139.242 30.0273C138.938 29.832 138.566 29.7344 138.129 29.7344C137.668 29.7344 137.273 29.8086 136.945 29.957C136.625 30.1055 136.363 30.3203 136.16 30.6016C135.957 30.8828 135.805 31.2188 135.703 31.6094C135.602 32 135.539 32.4414 135.516 32.9336V34.5625C135.555 35.1406 135.664 35.6602 135.844 36.1211C136.023 36.5742 136.301 36.9336 136.676 37.1992C137.051 37.4648 137.543 37.5977 138.152 37.5977C138.598 37.5977 138.973 37.5 139.277 37.3047C139.582 37.1016 139.828 36.8242 140.016 36.4727C140.211 36.1211 140.348 35.7148 140.426 35.2539C140.512 34.793 140.555 34.2969 140.555 33.7656ZM151.875 40.2344C150.891 40.2344 150.008 40.0781 149.227 39.7656C148.445 39.4453 147.781 39.0039 147.234 38.4414C146.695 37.8789 146.281 37.2266 145.992 36.4844C145.703 35.7344 145.559 34.9375 145.559 34.0938V33.625C145.559 32.6641 145.695 31.7852 145.969 30.9883C146.242 30.1914 146.633 29.5 147.141 28.9141C147.656 28.3281 148.281 27.8789 149.016 27.5664C149.75 27.2461 150.578 27.0859 151.5 27.0859C152.398 27.0859 153.195 27.2344 153.891 27.5312C154.586 27.8281 155.168 28.25 155.637 28.7969C156.113 29.3438 156.473 30 156.715 30.7656C156.957 31.5234 157.078 32.3672 157.078 33.2969V34.7031H147V32.4531H153.762V32.1953C153.762 31.7266 153.676 31.3086 153.504 30.9414C153.34 30.5664 153.09 30.2695 152.754 30.0508C152.418 29.832 151.988 29.7227 151.465 29.7227C151.02 29.7227 150.637 29.8203 150.316 30.0156C149.996 30.2109 149.734 30.4844 149.531 30.8359C149.336 31.1875 149.188 31.6016 149.086 32.0781C148.992 32.5469 148.945 33.0625 148.945 33.625V34.0938C148.945 34.6016 149.016 35.0703 149.156 35.5C149.305 35.9297 149.512 36.3008 149.777 36.6133C150.051 36.9258 150.379 37.168 150.762 37.3398C151.152 37.5117 151.594 37.5977 152.086 37.5977C152.695 37.5977 153.262 37.4805 153.785 37.2461C154.316 37.0039 154.773 36.6406 155.156 36.1562L156.797 37.9375C156.531 38.3203 156.168 38.6875 155.707 39.0391C155.254 39.3906 154.707 39.6797 154.066 39.9062C153.426 40.125 152.695 40.2344 151.875 40.2344ZM162.375 30.0859V40H159V27.3203H162.176L162.375 30.0859ZM166.195 27.2383L166.137 30.3672C165.973 30.3438 165.773 30.3242 165.539 30.3086C165.312 30.2852 165.105 30.2734 164.918 30.2734C164.441 30.2734 164.027 30.3359 163.676 30.4609C163.332 30.5781 163.043 30.7539 162.809 30.9883C162.582 31.2227 162.41 31.5078 162.293 31.8438C162.184 32.1797 162.121 32.5625 162.105 32.9922L161.426 32.7812C161.426 31.9609 161.508 31.207 161.672 30.5195C161.836 29.8242 162.074 29.2188 162.387 28.7031C162.707 28.1875 163.098 27.7891 163.559 27.5078C164.02 27.2266 164.547 27.0859 165.141 27.0859C165.328 27.0859 165.52 27.1016 165.715 27.1328C165.91 27.1562 166.07 27.1914 166.195 27.2383ZM174.586 27.3203V29.7109H167.203V27.3203H174.586ZM169.031 24.1914H172.406V36.1797C172.406 36.5469 172.453 36.8281 172.547 37.0234C172.648 37.2188 172.797 37.3555 172.992 37.4336C173.188 37.5039 173.434 37.5391 173.73 37.5391C173.941 37.5391 174.129 37.5312 174.293 37.5156C174.465 37.4922 174.609 37.4688 174.727 37.4453L174.738 39.9297C174.449 40.0234 174.137 40.0977 173.801 40.1523C173.465 40.207 173.094 40.2344 172.688 40.2344C171.945 40.2344 171.297 40.1133 170.742 39.8711C170.195 39.6211 169.773 39.2227 169.477 38.6758C169.18 38.1289 169.031 37.4102 169.031 36.5195V24.1914ZM180.27 38.5703L183.633 27.3203H187.254L182.156 41.9102C182.047 42.2305 181.898 42.5742 181.711 42.9414C181.531 43.3086 181.285 43.6562 180.973 43.9844C180.668 44.3203 180.281 44.5938 179.812 44.8047C179.352 45.0156 178.785 45.1211 178.113 45.1211C177.793 45.1211 177.531 45.1016 177.328 45.0625C177.125 45.0234 176.883 44.9688 176.602 44.8984V42.4258C176.688 42.4258 176.777 42.4258 176.871 42.4258C176.965 42.4336 177.055 42.4375 177.141 42.4375C177.586 42.4375 177.949 42.3867 178.23 42.2852C178.512 42.1836 178.738 42.0273 178.91 41.8164C179.082 41.6133 179.219 41.3477 179.32 41.0195L180.27 38.5703ZM178.863 27.3203L181.617 36.5078L182.098 40.082L179.801 40.3281L175.242 27.3203H178.863ZM208.312 31.082V37.8438C208.047 38.1641 207.637 38.5117 207.082 38.8867C206.527 39.2539 205.812 39.5703 204.938 39.8359C204.062 40.1016 203.004 40.2344 201.762 40.2344C200.66 40.2344 199.656 40.0547 198.75 39.6953C197.844 39.3281 197.062 38.793 196.406 38.0898C195.758 37.3867 195.258 36.5273 194.906 35.5117C194.555 34.4883 194.379 33.3203 194.379 32.0078V30.9414C194.379 29.6289 194.547 28.4609 194.883 27.4375C195.227 26.4141 195.715 25.5508 196.348 24.8477C196.98 24.1445 197.734 23.6094 198.609 23.2422C199.484 22.875 200.457 22.6914 201.527 22.6914C203.012 22.6914 204.23 22.9336 205.184 23.418C206.137 23.8945 206.863 24.5586 207.363 25.4102C207.871 26.2539 208.184 27.2227 208.301 28.3164H204.891C204.805 27.7383 204.641 27.2344 204.398 26.8047C204.156 26.375 203.809 26.0391 203.355 25.7969C202.91 25.5547 202.332 25.4336 201.621 25.4336C201.035 25.4336 200.512 25.5547 200.051 25.7969C199.598 26.0312 199.215 26.3789 198.902 26.8398C198.59 27.3008 198.352 27.8711 198.188 28.5508C198.023 29.2305 197.941 30.0195 197.941 30.918V32.0078C197.941 32.8984 198.027 33.6875 198.199 34.375C198.371 35.0547 198.625 35.6289 198.961 36.0977C199.305 36.5586 199.727 36.9062 200.227 37.1406C200.727 37.375 201.309 37.4922 201.973 37.4922C202.527 37.4922 202.988 37.4453 203.355 37.3516C203.73 37.2578 204.031 37.1445 204.258 37.0117C204.492 36.8711 204.672 36.7383 204.797 36.6133V33.5898H201.586V31.082H208.312ZM214.312 30.0859V40H210.938V27.3203H214.113L214.312 30.0859ZM218.133 27.2383L218.074 30.3672C217.91 30.3438 217.711 30.3242 217.477 30.3086C217.25 30.2852 217.043 30.2734 216.855 30.2734C216.379 30.2734 215.965 30.3359 215.613 30.4609C215.27 30.5781 214.98 30.7539 214.746 30.9883C214.52 31.2227 214.348 31.5078 214.23 31.8438C214.121 32.1797 214.059 32.5625 214.043 32.9922L213.363 32.7812C213.363 31.9609 213.445 31.207 213.609 30.5195C213.773 29.8242 214.012 29.2188 214.324 28.7031C214.645 28.1875 215.035 27.7891 215.496 27.5078C215.957 27.2266 216.484 27.0859 217.078 27.0859C217.266 27.0859 217.457 27.1016 217.652 27.1328C217.848 27.1562 218.008 27.1914 218.133 27.2383ZM218.836 33.7891V33.543C218.836 32.6133 218.969 31.7578 219.234 30.9766C219.5 30.1875 219.887 29.5039 220.395 28.9258C220.902 28.3477 221.527 27.8984 222.27 27.5781C223.012 27.25 223.863 27.0859 224.824 27.0859C225.785 27.0859 226.641 27.25 227.391 27.5781C228.141 27.8984 228.77 28.3477 229.277 28.9258C229.793 29.5039 230.184 30.1875 230.449 30.9766C230.715 31.7578 230.848 32.6133 230.848 33.543V33.7891C230.848 34.7109 230.715 35.5664 230.449 36.3555C230.184 37.1367 229.793 37.8203 229.277 38.4062C228.77 38.9844 228.145 39.4336 227.402 39.7539C226.66 40.0742 225.809 40.2344 224.848 40.2344C223.887 40.2344 223.031 40.0742 222.281 39.7539C221.539 39.4336 220.91 38.9844 220.395 38.4062C219.887 37.8203 219.5 37.1367 219.234 36.3555C218.969 35.5664 218.836 34.7109 218.836 33.7891ZM222.211 33.543V33.7891C222.211 34.3203 222.258 34.8164 222.352 35.2773C222.445 35.7383 222.594 36.1445 222.797 36.4961C223.008 36.8398 223.281 37.1094 223.617 37.3047C223.953 37.5 224.363 37.5977 224.848 37.5977C225.316 37.5977 225.719 37.5 226.055 37.3047C226.391 37.1094 226.66 36.8398 226.863 36.4961C227.066 36.1445 227.215 35.7383 227.309 35.2773C227.41 34.8164 227.461 34.3203 227.461 33.7891V33.543C227.461 33.0273 227.41 32.543 227.309 32.0898C227.215 31.6289 227.062 31.2227 226.852 30.8711C226.648 30.5117 226.379 30.2305 226.043 30.0273C225.707 29.8242 225.301 29.7227 224.824 29.7227C224.348 29.7227 223.941 29.8242 223.605 30.0273C223.277 30.2305 223.008 30.5117 222.797 30.8711C222.594 31.2227 222.445 31.6289 222.352 32.0898C222.258 32.543 222.211 33.0273 222.211 33.543ZM240.422 36.9648V27.3203H243.797V40H240.621L240.422 36.9648ZM240.797 34.3633L241.793 34.3398C241.793 35.1836 241.695 35.9688 241.5 36.6953C241.305 37.4141 241.012 38.0391 240.621 38.5703C240.23 39.0938 239.738 39.5039 239.145 39.8008C238.551 40.0898 237.852 40.2344 237.047 40.2344C236.43 40.2344 235.859 40.1484 235.336 39.9766C234.82 39.7969 234.375 39.5195 234 39.1445C233.633 38.7617 233.344 38.2734 233.133 37.6797C232.93 37.0781 232.828 36.3555 232.828 35.5117V27.3203H236.203V35.5352C236.203 35.9102 236.246 36.2266 236.332 36.4844C236.426 36.7422 236.555 36.9531 236.719 37.1172C236.883 37.2812 237.074 37.3984 237.293 37.4688C237.52 37.5391 237.77 37.5742 238.043 37.5742C238.738 37.5742 239.285 37.4336 239.684 37.1523C240.09 36.8711 240.375 36.4883 240.539 36.0039C240.711 35.5117 240.797 34.9648 240.797 34.3633ZM249.75 29.7578V44.875H246.375V27.3203H249.504L249.75 29.7578ZM257.777 33.5195V33.7656C257.777 34.6875 257.668 35.543 257.449 36.332C257.238 37.1211 256.926 37.8086 256.512 38.3945C256.098 38.9727 255.582 39.4258 254.965 39.7539C254.355 40.0742 253.652 40.2344 252.855 40.2344C252.082 40.2344 251.41 40.0781 250.84 39.7656C250.27 39.4531 249.789 39.0156 249.398 38.4531C249.016 37.8828 248.707 37.2227 248.473 36.4727C248.238 35.7227 248.059 34.918 247.934 34.0586V33.4141C248.059 32.4922 248.238 31.6484 248.473 30.8828C248.707 30.1094 249.016 29.4414 249.398 28.8789C249.789 28.3086 250.266 27.8672 250.828 27.5547C251.398 27.2422 252.066 27.0859 252.832 27.0859C253.637 27.0859 254.344 27.2383 254.953 27.543C255.57 27.8477 256.086 28.2852 256.5 28.8555C256.922 29.4258 257.238 30.1055 257.449 30.8945C257.668 31.6836 257.777 32.5586 257.777 33.5195ZM254.391 33.7656V33.5195C254.391 32.9805 254.344 32.4844 254.25 32.0312C254.164 31.5703 254.023 31.168 253.828 30.8242C253.641 30.4805 253.391 30.2148 253.078 30.0273C252.773 29.832 252.402 29.7344 251.965 29.7344C251.504 29.7344 251.109 29.8086 250.781 29.957C250.461 30.1055 250.199 30.3203 249.996 30.6016C249.793 30.8828 249.641 31.2188 249.539 31.6094C249.438 32 249.375 32.4414 249.352 32.9336V34.5625C249.391 35.1406 249.5 35.6602 249.68 36.1211C249.859 36.5742 250.137 36.9336 250.512 37.1992C250.887 37.4648 251.379 37.5977 251.988 37.5977C252.434 37.5977 252.809 37.5 253.113 37.3047C253.418 37.1016 253.664 36.8242 253.852 36.4727C254.047 36.1211 254.184 35.7148 254.262 35.2539C254.348 34.793 254.391 34.2969 254.391 33.7656Z" fill="#455A64"/>
</svg>
