<svg width="238" height="64" viewBox="0 0 238 64" fill="none" xmlns="http://www.w3.org/2000/svg">
<path d="M37.503 48H50.4208L18.4209 16H5.50305L37.503 48Z" fill="#455A64"/>
<path d="M25.0574 16L55.9048 46.8474V16H47.5569V25.7391L37.8177 16L25.0574 16Z" fill="#455A64"/>
<path d="M0.0952148 17.0713V47.9999H8.44303V38.2607L18.1821 47.9999H31.0239L0.0952148 17.0713Z" fill="#455A64"/>
<path d="M74.311 35.5352C74.311 35.2305 74.2642 34.957 74.1704 34.7148C74.0845 34.4648 73.9204 34.2383 73.6782 34.0352C73.436 33.8242 73.0962 33.6172 72.6587 33.4141C72.2212 33.2109 71.6548 33 70.9595 32.7812C70.186 32.5312 69.4517 32.25 68.7563 31.9375C68.0688 31.625 67.4595 31.2617 66.9282 30.8477C66.4048 30.4258 65.9907 29.9375 65.686 29.3828C65.3892 28.8281 65.2407 28.1836 65.2407 27.4492C65.2407 26.7383 65.397 26.0938 65.7095 25.5156C66.022 24.9297 66.4595 24.4297 67.022 24.0156C67.5845 23.5938 68.2485 23.2695 69.0142 23.043C69.7876 22.8164 70.6353 22.7031 71.5571 22.7031C72.8149 22.7031 73.9126 22.9297 74.8501 23.3828C75.7876 23.8359 76.5142 24.457 77.0298 25.2461C77.5532 26.0352 77.8149 26.9375 77.8149 27.9531H74.3228C74.3228 27.4531 74.2173 27.0156 74.0063 26.6406C73.8032 26.2578 73.4907 25.957 73.0688 25.7383C72.6548 25.5195 72.1313 25.4102 71.4985 25.4102C70.8892 25.4102 70.3813 25.5039 69.9751 25.6914C69.5688 25.8711 69.2642 26.1172 69.061 26.4297C68.8579 26.7344 68.7563 27.0781 68.7563 27.4609C68.7563 27.75 68.8267 28.0117 68.9673 28.2461C69.1157 28.4805 69.3345 28.6992 69.6235 28.9023C69.9126 29.1055 70.2681 29.2969 70.6899 29.4766C71.1118 29.6562 71.6001 29.832 72.1548 30.0039C73.0845 30.2852 73.9009 30.6016 74.604 30.9531C75.3149 31.3047 75.9087 31.6992 76.3853 32.1367C76.8618 32.5742 77.2212 33.0703 77.4634 33.625C77.7056 34.1797 77.8267 34.8086 77.8267 35.5117C77.8267 36.2539 77.6821 36.918 77.3931 37.5039C77.104 38.0898 76.686 38.5859 76.1392 38.9922C75.5923 39.3984 74.9399 39.707 74.1821 39.918C73.4243 40.1289 72.5767 40.2344 71.6392 40.2344C70.7954 40.2344 69.9634 40.125 69.1431 39.9062C68.3228 39.6797 67.5767 39.3398 66.9048 38.8867C66.2407 38.4336 65.7095 37.8555 65.311 37.1523C64.9126 36.4492 64.7134 35.6172 64.7134 34.6562H68.2407C68.2407 35.1875 68.3228 35.6367 68.4868 36.0039C68.6509 36.3711 68.8813 36.668 69.1782 36.8945C69.4829 37.1211 69.8423 37.2852 70.2563 37.3867C70.6782 37.4883 71.1392 37.5391 71.6392 37.5391C72.2485 37.5391 72.7485 37.4531 73.1392 37.2812C73.5376 37.1094 73.8306 36.8711 74.0181 36.5664C74.2134 36.2617 74.311 35.918 74.311 35.5352ZM83.3813 21.9883V40H80.0063V21.9883H83.3813ZM91.3735 27.3203L85.8657 33.6016L82.9126 36.5898L81.6821 34.1523L84.0259 31.1758L87.3188 27.3203H91.3735ZM87.8696 40L84.1196 34.1406L86.4517 32.1016L91.7603 40H87.8696ZM96.5884 38.5703L99.9517 27.3203H103.573L98.4751 41.9102C98.3657 42.2305 98.2173 42.5742 98.0298 42.9414C97.8501 43.3086 97.604 43.6562 97.2915 43.9844C96.9868 44.3203 96.6001 44.5938 96.1313 44.8047C95.6704 45.0156 95.104 45.1211 94.4321 45.1211C94.1118 45.1211 93.8501 45.1016 93.647 45.0625C93.4438 45.0234 93.2017 44.9688 92.9204 44.8984V42.4258C93.0063 42.4258 93.0962 42.4258 93.1899 42.4258C93.2837 42.4336 93.3735 42.4375 93.4595 42.4375C93.9048 42.4375 94.2681 42.3867 94.5493 42.2852C94.8306 42.1836 95.0571 42.0273 95.229 41.8164C95.4009 41.6133 95.5376 41.3477 95.6392 41.0195L96.5884 38.5703ZM95.1821 27.3203L97.936 36.5078L98.4165 40.082L96.1196 40.3281L91.561 27.3203H95.1821ZM108.483 22V40H105.096V22H108.483ZM114.834 27.3203V40H111.448V27.3203H114.834ZM111.237 24.0156C111.237 23.5234 111.409 23.1172 111.752 22.7969C112.096 22.4766 112.557 22.3164 113.135 22.3164C113.706 22.3164 114.163 22.4766 114.506 22.7969C114.858 23.1172 115.034 23.5234 115.034 24.0156C115.034 24.5078 114.858 24.9141 114.506 25.2344C114.163 25.5547 113.706 25.7148 113.135 25.7148C112.557 25.7148 112.096 25.5547 111.752 25.2344C111.409 24.9141 111.237 24.5078 111.237 24.0156ZM120.928 30.0273V40H117.553V27.3203H120.717L120.928 30.0273ZM120.436 33.2148H119.522C119.522 32.2773 119.643 31.4336 119.885 30.6836C120.127 29.9258 120.467 29.2812 120.905 28.75C121.342 28.2109 121.862 27.8008 122.463 27.5195C123.073 27.2305 123.752 27.0859 124.502 27.0859C125.096 27.0859 125.639 27.1719 126.131 27.3438C126.624 27.5156 127.045 27.7891 127.397 28.1641C127.756 28.5391 128.03 29.0352 128.217 29.6523C128.413 30.2695 128.51 31.0234 128.51 31.9141V40H125.112V31.9023C125.112 31.3398 125.034 30.9023 124.877 30.5898C124.721 30.2773 124.491 30.0586 124.186 29.9336C123.889 29.8008 123.522 29.7344 123.084 29.7344C122.631 29.7344 122.237 29.8242 121.901 30.0039C121.573 30.1836 121.299 30.4336 121.081 30.7539C120.87 31.0664 120.709 31.4336 120.6 31.8555C120.491 32.2773 120.436 32.7305 120.436 33.2148ZM136.913 40.2344C135.928 40.2344 135.045 40.0781 134.264 39.7656C133.483 39.4453 132.819 39.0039 132.272 38.4414C131.733 37.8789 131.319 37.2266 131.03 36.4844C130.741 35.7344 130.596 34.9375 130.596 34.0938V33.625C130.596 32.6641 130.733 31.7852 131.006 30.9883C131.28 30.1914 131.67 29.5 132.178 28.9141C132.694 28.3281 133.319 27.8789 134.053 27.5664C134.788 27.2461 135.616 27.0859 136.538 27.0859C137.436 27.0859 138.233 27.2344 138.928 27.5312C139.624 27.8281 140.206 28.25 140.674 28.7969C141.151 29.3438 141.51 30 141.752 30.7656C141.995 31.5234 142.116 32.3672 142.116 33.2969V34.7031H132.038V32.4531H138.799V32.1953C138.799 31.7266 138.713 31.3086 138.542 30.9414C138.377 30.5664 138.127 30.2695 137.792 30.0508C137.456 29.832 137.026 29.7227 136.502 29.7227C136.057 29.7227 135.674 29.8203 135.354 30.0156C135.034 30.2109 134.772 30.4844 134.569 30.8359C134.374 31.1875 134.225 31.6016 134.124 32.0781C134.03 32.5469 133.983 33.0625 133.983 33.625V34.0938C133.983 34.6016 134.053 35.0703 134.194 35.5C134.342 35.9297 134.549 36.3008 134.815 36.6133C135.088 36.9258 135.417 37.168 135.799 37.3398C136.19 37.5117 136.631 37.5977 137.124 37.5977C137.733 37.5977 138.299 37.4805 138.823 37.2461C139.354 37.0039 139.811 36.6406 140.194 36.1562L141.834 37.9375C141.569 38.3203 141.206 38.6875 140.745 39.0391C140.292 39.3906 139.745 39.6797 139.104 39.9062C138.463 40.125 137.733 40.2344 136.913 40.2344ZM156.905 32.5117H152.522L152.499 30.0977H156.178C156.827 30.0977 157.358 30.0156 157.772 29.8516C158.186 29.6797 158.495 29.4336 158.698 29.1133C158.909 28.7852 159.014 28.3867 159.014 27.918C159.014 27.3867 158.913 26.957 158.709 26.6289C158.514 26.3008 158.206 26.0625 157.784 25.9141C157.37 25.7656 156.834 25.6914 156.178 25.6914H153.741V40H150.225V22.9375H156.178C157.17 22.9375 158.057 23.0312 158.838 23.2188C159.627 23.4062 160.295 23.6914 160.842 24.0742C161.389 24.457 161.807 24.9414 162.096 25.5273C162.385 26.1055 162.53 26.793 162.53 27.5898C162.53 28.293 162.37 28.9414 162.049 29.5352C161.737 30.1289 161.241 30.6133 160.561 30.9883C159.889 31.3633 159.01 31.5703 157.924 31.6094L156.905 32.5117ZM156.752 40H151.561L152.932 37.2578H156.752C157.37 37.2578 157.874 37.1602 158.264 36.9648C158.655 36.7617 158.944 36.4883 159.131 36.1445C159.319 35.8008 159.413 35.4062 159.413 34.9609C159.413 34.4609 159.327 34.0273 159.155 33.6602C158.991 33.293 158.725 33.0117 158.358 32.8164C157.991 32.6133 157.506 32.5117 156.905 32.5117H153.518L153.542 30.0977H157.76L158.569 31.0469C159.608 31.0312 160.444 31.2148 161.077 31.5977C161.717 31.9727 162.182 32.4609 162.471 33.0625C162.768 33.6641 162.917 34.3086 162.917 34.9961C162.917 36.0898 162.678 37.0117 162.202 37.7617C161.725 38.5039 161.026 39.0625 160.104 39.4375C159.19 39.8125 158.073 40 156.752 40ZM172.842 36.9648V27.3203H176.217V40H173.042L172.842 36.9648ZM173.217 34.3633L174.213 34.3398C174.213 35.1836 174.116 35.9688 173.92 36.6953C173.725 37.4141 173.432 38.0391 173.042 38.5703C172.651 39.0938 172.159 39.5039 171.565 39.8008C170.971 40.0898 170.272 40.2344 169.467 40.2344C168.85 40.2344 168.28 40.1484 167.756 39.9766C167.241 39.7969 166.795 39.5195 166.42 39.1445C166.053 38.7617 165.764 38.2734 165.553 37.6797C165.35 37.0781 165.249 36.3555 165.249 35.5117V27.3203H168.624V35.5352C168.624 35.9102 168.667 36.2266 168.752 36.4844C168.846 36.7422 168.975 36.9531 169.139 37.1172C169.303 37.2812 169.495 37.3984 169.713 37.4688C169.94 37.5391 170.19 37.5742 170.463 37.5742C171.159 37.5742 171.706 37.4336 172.104 37.1523C172.51 36.8711 172.795 36.4883 172.959 36.0039C173.131 35.5117 173.217 34.9648 173.217 34.3633ZM182.358 27.3203V40H178.971V27.3203H182.358ZM178.76 24.0156C178.76 23.5234 178.932 23.1172 179.276 22.7969C179.62 22.4766 180.081 22.3164 180.659 22.3164C181.229 22.3164 181.686 22.4766 182.03 22.7969C182.381 23.1172 182.557 23.5234 182.557 24.0156C182.557 24.5078 182.381 24.9141 182.03 25.2344C181.686 25.5547 181.229 25.7148 180.659 25.7148C180.081 25.7148 179.62 25.5547 179.276 25.2344C178.932 24.9141 178.76 24.5078 178.76 24.0156ZM188.709 22V40H185.323V22H188.709ZM198.987 37.2344V22H202.385V40H199.327L198.987 37.2344ZM190.971 33.8125V33.5664C190.971 32.5977 191.081 31.7188 191.299 30.9297C191.518 30.1328 191.838 29.4492 192.26 28.8789C192.682 28.3086 193.202 27.8672 193.819 27.5547C194.436 27.2422 195.139 27.0859 195.928 27.0859C196.67 27.0859 197.319 27.2422 197.874 27.5547C198.436 27.8672 198.913 28.3125 199.303 28.8906C199.702 29.4609 200.022 30.1367 200.264 30.918C200.506 31.6914 200.682 32.5391 200.792 33.4609V34C200.682 34.8828 200.506 35.7031 200.264 36.4609C200.022 37.2188 199.702 37.8828 199.303 38.4531C198.913 39.0156 198.436 39.4531 197.874 39.7656C197.311 40.0781 196.655 40.2344 195.905 40.2344C195.116 40.2344 194.413 40.0742 193.795 39.7539C193.186 39.4336 192.67 38.9844 192.249 38.4062C191.834 37.8281 191.518 37.1484 191.299 36.3672C191.081 35.5859 190.971 34.7344 190.971 33.8125ZM194.346 33.5664V33.8125C194.346 34.3359 194.385 34.8242 194.463 35.2773C194.549 35.7305 194.686 36.1328 194.874 36.4844C195.069 36.8281 195.319 37.0977 195.624 37.293C195.936 37.4805 196.315 37.5742 196.76 37.5742C197.338 37.5742 197.815 37.4453 198.19 37.1875C198.565 36.9219 198.85 36.5586 199.045 36.0977C199.249 35.6367 199.366 35.1055 199.397 34.5039V32.9688C199.374 32.4766 199.303 32.0352 199.186 31.6445C199.077 31.2461 198.913 30.9062 198.694 30.625C198.483 30.3438 198.217 30.125 197.897 29.9688C197.584 29.8125 197.213 29.7344 196.784 29.7344C196.346 29.7344 195.971 29.8359 195.659 30.0391C195.346 30.2344 195.092 30.5039 194.897 30.8477C194.709 31.1914 194.569 31.5977 194.475 32.0664C194.389 32.5273 194.346 33.0273 194.346 33.5664ZM210.858 40.2344C209.874 40.2344 208.991 40.0781 208.209 39.7656C207.428 39.4453 206.764 39.0039 206.217 38.4414C205.678 37.8789 205.264 37.2266 204.975 36.4844C204.686 35.7344 204.542 34.9375 204.542 34.0938V33.625C204.542 32.6641 204.678 31.7852 204.952 30.9883C205.225 30.1914 205.616 29.5 206.124 28.9141C206.639 28.3281 207.264 27.8789 207.999 27.5664C208.733 27.2461 209.561 27.0859 210.483 27.0859C211.381 27.0859 212.178 27.2344 212.874 27.5312C213.569 27.8281 214.151 28.25 214.62 28.7969C215.096 29.3438 215.456 30 215.698 30.7656C215.94 31.5234 216.061 32.3672 216.061 33.2969V34.7031H205.983V32.4531H212.745V32.1953C212.745 31.7266 212.659 31.3086 212.487 30.9414C212.323 30.5664 212.073 30.2695 211.737 30.0508C211.401 29.832 210.971 29.7227 210.448 29.7227C210.002 29.7227 209.62 29.8203 209.299 30.0156C208.979 30.2109 208.717 30.4844 208.514 30.8359C208.319 31.1875 208.17 31.6016 208.069 32.0781C207.975 32.5469 207.928 33.0625 207.928 33.625V34.0938C207.928 34.6016 207.999 35.0703 208.139 35.5C208.288 35.9297 208.495 36.3008 208.76 36.6133C209.034 36.9258 209.362 37.168 209.745 37.3398C210.135 37.5117 210.577 37.5977 211.069 37.5977C211.678 37.5977 212.245 37.4805 212.768 37.2461C213.299 37.0039 213.756 36.6406 214.139 36.1562L215.78 37.9375C215.514 38.3203 215.151 38.6875 214.69 39.0391C214.237 39.3906 213.69 39.6797 213.049 39.9062C212.409 40.125 211.678 40.2344 210.858 40.2344ZM221.358 30.0859V40H217.983V27.3203H221.159L221.358 30.0859ZM225.178 27.2383L225.12 30.3672C224.956 30.3438 224.756 30.3242 224.522 30.3086C224.295 30.2852 224.088 30.2734 223.901 30.2734C223.424 30.2734 223.01 30.3359 222.659 30.4609C222.315 30.5781 222.026 30.7539 221.792 30.9883C221.565 31.2227 221.393 31.5078 221.276 31.8438C221.167 32.1797 221.104 32.5625 221.088 32.9922L220.409 32.7812C220.409 31.9609 220.491 31.207 220.655 30.5195C220.819 29.8242 221.057 29.2188 221.37 28.7031C221.69 28.1875 222.081 27.7891 222.542 27.5078C223.002 27.2266 223.53 27.0859 224.124 27.0859C224.311 27.0859 224.502 27.1016 224.698 27.1328C224.893 27.1562 225.053 27.1914 225.178 27.2383ZM233.627 36.4961C233.627 36.2539 233.557 36.0352 233.417 35.8398C233.276 35.6445 233.014 35.4648 232.631 35.3008C232.256 35.1289 231.713 34.9727 231.002 34.832C230.362 34.6914 229.764 34.5156 229.209 34.3047C228.663 34.0859 228.186 33.8242 227.78 33.5195C227.381 33.2148 227.069 32.8555 226.842 32.4414C226.616 32.0195 226.502 31.5391 226.502 31C226.502 30.4688 226.616 29.9688 226.842 29.5C227.077 29.0312 227.409 28.6172 227.838 28.2578C228.276 27.8906 228.807 27.6055 229.432 27.4023C230.065 27.1914 230.776 27.0859 231.565 27.0859C232.667 27.0859 233.612 27.2617 234.401 27.6133C235.198 27.9648 235.807 28.4492 236.229 29.0664C236.659 29.6758 236.874 30.3711 236.874 31.1523H233.499C233.499 30.8242 233.428 30.5312 233.288 30.2734C233.155 30.0078 232.944 29.8008 232.655 29.6523C232.374 29.4961 232.006 29.418 231.553 29.418C231.178 29.418 230.854 29.4844 230.581 29.6172C230.307 29.7422 230.096 29.9141 229.948 30.1328C229.807 30.3438 229.737 30.5781 229.737 30.8359C229.737 31.0312 229.776 31.207 229.854 31.3633C229.94 31.5117 230.077 31.6484 230.264 31.7734C230.452 31.8984 230.694 32.0156 230.991 32.125C231.295 32.2266 231.67 32.3203 232.116 32.4062C233.03 32.5938 233.846 32.8398 234.565 33.1445C235.284 33.4414 235.854 33.8477 236.276 34.3633C236.698 34.8711 236.909 35.5391 236.909 36.3672C236.909 36.9297 236.784 37.4453 236.534 37.9141C236.284 38.3828 235.924 38.793 235.456 39.1445C234.987 39.4883 234.424 39.7578 233.768 39.9531C233.12 40.1406 232.389 40.2344 231.577 40.2344C230.397 40.2344 229.397 40.0234 228.577 39.6016C227.764 39.1797 227.147 38.6445 226.725 37.9961C226.311 37.3398 226.104 36.668 226.104 35.9805H229.303C229.319 36.4414 229.436 36.8125 229.655 37.0938C229.881 37.375 230.167 37.5781 230.51 37.7031C230.862 37.8281 231.241 37.8906 231.647 37.8906C232.084 37.8906 232.448 37.832 232.737 37.7148C233.026 37.5898 233.245 37.4258 233.393 37.2227C233.549 37.0117 233.627 36.7695 233.627 36.4961Z" fill="#455A64"/>
</svg>
