<svg width="252" height="64" viewBox="0 0 252 64" fill="none" xmlns="http://www.w3.org/2000/svg">
<path fill-rule="evenodd" clip-rule="evenodd" d="M16.5 48C25.3366 48 32.5 40.8366 32.5 32C32.5 23.1635 25.3366 16 16.5 16C7.66343 16 0.5 23.1635 0.5 32C0.5 40.8366 7.66343 48 16.5 48ZM21.4915 23.4535C21.7344 22.5904 20.8969 22.0801 20.132 22.625L9.4545 30.2317C8.62498 30.8226 8.75546 32 9.6505 32H12.4622V31.9782H17.942L13.477 33.5537L11.5086 40.5466C11.2656 41.4096 12.1031 41.9199 12.868 41.375L23.5455 33.7684C24.3751 33.1774 24.2445 32 23.3496 32H19.0857L21.4915 23.4535Z" fill="#455A64"/>
<path d="M55.5469 31.082V37.8438C55.2813 38.1641 54.8711 38.5117 54.3164 38.8867C53.7617 39.2539 53.0469 39.5703 52.1719 39.8359C51.2969 40.1016 50.2383 40.2344 48.9961 40.2344C47.8946 40.2344 46.8907 40.0547 45.9844 39.6953C45.0782 39.3281 44.2969 38.793 43.6407 38.0898C42.9922 37.3867 42.4922 36.5273 42.1407 35.5117C41.7891 34.4883 41.6133 33.3203 41.6133 32.0078V30.9414C41.6133 29.6289 41.7813 28.4609 42.1172 27.4375C42.461 26.4141 42.9492 25.5508 43.5821 24.8477C44.2149 24.1445 44.9688 23.6094 45.8438 23.2422C46.7188 22.875 47.6914 22.6914 48.7617 22.6914C50.2461 22.6914 51.4649 22.9336 52.418 23.418C53.3711 23.8945 54.0977 24.5586 54.5977 25.4102C55.1055 26.2539 55.418 27.2227 55.5352 28.3164H52.125C52.0391 27.7383 51.875 27.2344 51.6328 26.8047C51.3907 26.375 51.043 26.0391 50.5899 25.7969C50.1446 25.5547 49.5664 25.4336 48.8555 25.4336C48.2696 25.4336 47.7461 25.5547 47.2852 25.7969C46.8321 26.0312 46.4492 26.3789 46.1367 26.8398C45.8242 27.3008 45.586 27.8711 45.4219 28.5508C45.2578 29.2305 45.1758 30.0195 45.1758 30.918V32.0078C45.1758 32.8984 45.2617 33.6875 45.4336 34.375C45.6055 35.0547 45.8594 35.6289 46.1953 36.0977C46.5391 36.5586 46.961 36.9062 47.461 37.1406C47.961 37.375 48.543 37.4922 49.2071 37.4922C49.7617 37.4922 50.2227 37.4453 50.5899 37.3516C50.9649 37.2578 51.2657 37.1445 51.4922 37.0117C51.7266 36.8711 51.9063 36.7383 52.0313 36.6133V33.5898H48.8203V31.082H55.5469ZM61.5469 30.0859V40H58.1719V27.3203H61.3477L61.5469 30.0859ZM65.3672 27.2383L65.3086 30.3672C65.1446 30.3438 64.9453 30.3242 64.711 30.3086C64.4844 30.2852 64.2774 30.2734 64.0899 30.2734C63.6133 30.2734 63.1992 30.3359 62.8477 30.4609C62.5039 30.5781 62.2149 30.7539 61.9805 30.9883C61.7539 31.2227 61.5821 31.5078 61.4649 31.8438C61.3555 32.1797 61.293 32.5625 61.2774 32.9922L60.5977 32.7812C60.5977 31.9609 60.6797 31.207 60.8438 30.5195C61.0078 29.8242 61.2461 29.2188 61.5586 28.7031C61.8789 28.1875 62.2696 27.7891 62.7305 27.5078C63.1914 27.2266 63.7188 27.0859 64.3125 27.0859C64.5 27.0859 64.6914 27.1016 64.8867 27.1328C65.0821 27.1562 65.2422 27.1914 65.3672 27.2383ZM72.5625 40.2344C71.5782 40.2344 70.6953 40.0781 69.9141 39.7656C69.1328 39.4453 68.4688 39.0039 67.9219 38.4414C67.3828 37.8789 66.9688 37.2266 66.6797 36.4844C66.3907 35.7344 66.2461 34.9375 66.2461 34.0938V33.625C66.2461 32.6641 66.3828 31.7852 66.6563 30.9883C66.9297 30.1914 67.3203 29.5 67.8282 28.9141C68.3438 28.3281 68.9688 27.8789 69.7032 27.5664C70.4375 27.2461 71.2657 27.0859 72.1875 27.0859C73.086 27.0859 73.8828 27.2344 74.5782 27.5312C75.2735 27.8281 75.8555 28.25 76.3242 28.7969C76.8008 29.3438 77.1602 30 77.4024 30.7656C77.6446 31.5234 77.7657 32.3672 77.7657 33.2969V34.7031H67.6875V32.4531H74.4492V32.1953C74.4492 31.7266 74.3633 31.3086 74.1914 30.9414C74.0274 30.5664 73.7774 30.2695 73.4414 30.0508C73.1055 29.832 72.6758 29.7227 72.1524 29.7227C71.7071 29.7227 71.3242 29.8203 71.0039 30.0156C70.6836 30.2109 70.4219 30.4844 70.2188 30.8359C70.0235 31.1875 69.875 31.6016 69.7735 32.0781C69.6797 32.5469 69.6328 33.0625 69.6328 33.625V34.0938C69.6328 34.6016 69.7032 35.0703 69.8438 35.5C69.9922 35.9297 70.1992 36.3008 70.4649 36.6133C70.7383 36.9258 71.0664 37.168 71.4492 37.3398C71.8399 37.5117 72.2813 37.5977 72.7735 37.5977C73.3828 37.5977 73.9492 37.4805 74.4727 37.2461C75.0039 37.0039 75.461 36.6406 75.8438 36.1562L77.4844 37.9375C77.2188 38.3203 76.8555 38.6875 76.3946 39.0391C75.9414 39.3906 75.3946 39.6797 74.7539 39.9062C74.1133 40.125 73.3828 40.2344 72.5625 40.2344ZM85.5235 40.2344C84.5391 40.2344 83.6563 40.0781 82.875 39.7656C82.0938 39.4453 81.4297 39.0039 80.8828 38.4414C80.3438 37.8789 79.9297 37.2266 79.6407 36.4844C79.3516 35.7344 79.2071 34.9375 79.2071 34.0938V33.625C79.2071 32.6641 79.3438 31.7852 79.6172 30.9883C79.8907 30.1914 80.2813 29.5 80.7891 28.9141C81.3047 28.3281 81.9297 27.8789 82.6641 27.5664C83.3985 27.2461 84.2266 27.0859 85.1485 27.0859C86.0469 27.0859 86.8438 27.2344 87.5391 27.5312C88.2344 27.8281 88.8164 28.25 89.2852 28.7969C89.7617 29.3438 90.1211 30 90.3633 30.7656C90.6055 31.5234 90.7266 32.3672 90.7266 33.2969V34.7031H80.6485V32.4531H87.4102V32.1953C87.4102 31.7266 87.3242 31.3086 87.1524 30.9414C86.9883 30.5664 86.7383 30.2695 86.4024 30.0508C86.0664 29.832 85.6367 29.7227 85.1133 29.7227C84.668 29.7227 84.2852 29.8203 83.9649 30.0156C83.6446 30.2109 83.3828 30.4844 83.1797 30.8359C82.9844 31.1875 82.836 31.6016 82.7344 32.0781C82.6407 32.5469 82.5938 33.0625 82.5938 33.625V34.0938C82.5938 34.6016 82.6641 35.0703 82.8047 35.5C82.9532 35.9297 83.1602 36.3008 83.4258 36.6133C83.6992 36.9258 84.0274 37.168 84.4102 37.3398C84.8008 37.5117 85.2422 37.5977 85.7344 37.5977C86.3438 37.5977 86.9102 37.4805 87.4336 37.2461C87.9649 37.0039 88.4219 36.6406 88.8047 36.1562L90.4453 37.9375C90.1797 38.3203 89.8164 38.6875 89.3555 39.0391C88.9024 39.3906 88.3555 39.6797 87.7149 39.9062C87.0742 40.125 86.3438 40.2344 85.5235 40.2344ZM95.9532 30.0273V40H92.5782V27.3203H95.7422L95.9532 30.0273ZM95.461 33.2148H94.5469C94.5469 32.2773 94.668 31.4336 94.9102 30.6836C95.1524 29.9258 95.4922 29.2812 95.9297 28.75C96.3672 28.2109 96.8867 27.8008 97.4883 27.5195C98.0977 27.2305 98.7774 27.0859 99.5274 27.0859C100.121 27.0859 100.664 27.1719 101.156 27.3438C101.648 27.5156 102.07 27.7891 102.422 28.1641C102.781 28.5391 103.055 29.0352 103.242 29.6523C103.438 30.2695 103.535 31.0234 103.535 31.9141V40H100.137V31.9023C100.137 31.3398 100.059 30.9023 99.9024 30.5898C99.7461 30.2773 99.5157 30.0586 99.211 29.9336C98.9141 29.8008 98.5469 29.7344 98.1094 29.7344C97.6563 29.7344 97.2617 29.8242 96.9258 30.0039C96.5977 30.1836 96.3242 30.4336 96.1055 30.7539C95.8946 31.0664 95.7344 31.4336 95.625 31.8555C95.5157 32.2773 95.461 32.7305 95.461 33.2148ZM121.172 35.5352C121.172 35.2305 121.125 34.957 121.031 34.7148C120.945 34.4648 120.781 34.2383 120.539 34.0352C120.297 33.8242 119.957 33.6172 119.52 33.4141C119.082 33.2109 118.516 33 117.82 32.7812C117.047 32.5312 116.313 32.25 115.617 31.9375C114.93 31.625 114.32 31.2617 113.789 30.8477C113.266 30.4258 112.852 29.9375 112.547 29.3828C112.25 28.8281 112.102 28.1836 112.102 27.4492C112.102 26.7383 112.258 26.0938 112.57 25.5156C112.883 24.9297 113.32 24.4297 113.883 24.0156C114.445 23.5938 115.109 23.2695 115.875 23.043C116.648 22.8164 117.496 22.7031 118.418 22.7031C119.676 22.7031 120.773 22.9297 121.711 23.3828C122.648 23.8359 123.375 24.457 123.891 25.2461C124.414 26.0352 124.676 26.9375 124.676 27.9531H121.184C121.184 27.4531 121.078 27.0156 120.867 26.6406C120.664 26.2578 120.352 25.957 119.93 25.7383C119.516 25.5195 118.992 25.4102 118.359 25.4102C117.75 25.4102 117.242 25.5039 116.836 25.6914C116.43 25.8711 116.125 26.1172 115.922 26.4297C115.719 26.7344 115.617 27.0781 115.617 27.4609C115.617 27.75 115.688 28.0117 115.828 28.2461C115.977 28.4805 116.195 28.6992 116.484 28.9023C116.773 29.1055 117.129 29.2969 117.551 29.4766C117.973 29.6562 118.461 29.832 119.016 30.0039C119.945 30.2852 120.762 30.6016 121.465 30.9531C122.176 31.3047 122.77 31.6992 123.246 32.1367C123.723 32.5742 124.082 33.0703 124.324 33.625C124.566 34.1797 124.688 34.8086 124.688 35.5117C124.688 36.2539 124.543 36.918 124.254 37.5039C123.965 38.0898 123.547 38.5859 123 38.9922C122.453 39.3984 121.801 39.707 121.043 39.918C120.285 40.1289 119.438 40.2344 118.5 40.2344C117.656 40.2344 116.824 40.125 116.004 39.9062C115.184 39.6797 114.438 39.3398 113.766 38.8867C113.102 38.4336 112.57 37.8555 112.172 37.1523C111.773 36.4492 111.574 35.6172 111.574 34.6562H115.102C115.102 35.1875 115.184 35.6367 115.348 36.0039C115.512 36.3711 115.742 36.668 116.039 36.8945C116.344 37.1211 116.703 37.2852 117.117 37.3867C117.539 37.4883 118 37.5391 118.5 37.5391C119.109 37.5391 119.609 37.4531 120 37.2812C120.398 37.1094 120.691 36.8711 120.879 36.5664C121.074 36.2617 121.172 35.918 121.172 35.5352ZM130.242 29.7578V44.875H126.867V27.3203H129.996L130.242 29.7578ZM138.27 33.5195V33.7656C138.27 34.6875 138.16 35.543 137.941 36.332C137.73 37.1211 137.418 37.8086 137.004 38.3945C136.59 38.9727 136.074 39.4258 135.457 39.7539C134.848 40.0742 134.145 40.2344 133.348 40.2344C132.574 40.2344 131.902 40.0781 131.332 39.7656C130.762 39.4531 130.281 39.0156 129.891 38.4531C129.508 37.8828 129.199 37.2227 128.965 36.4727C128.73 35.7227 128.551 34.918 128.426 34.0586V33.4141C128.551 32.4922 128.73 31.6484 128.965 30.8828C129.199 30.1094 129.508 29.4414 129.891 28.8789C130.281 28.3086 130.758 27.8672 131.32 27.5547C131.891 27.2422 132.559 27.0859 133.324 27.0859C134.129 27.0859 134.836 27.2383 135.445 27.543C136.063 27.8477 136.578 28.2852 136.992 28.8555C137.414 29.4258 137.73 30.1055 137.941 30.8945C138.16 31.6836 138.27 32.5586 138.27 33.5195ZM134.883 33.7656V33.5195C134.883 32.9805 134.836 32.4844 134.742 32.0312C134.656 31.5703 134.516 31.168 134.32 30.8242C134.133 30.4805 133.883 30.2148 133.57 30.0273C133.266 29.832 132.895 29.7344 132.457 29.7344C131.996 29.7344 131.602 29.8086 131.273 29.957C130.953 30.1055 130.691 30.3203 130.488 30.6016C130.285 30.8828 130.133 31.2188 130.031 31.6094C129.93 32 129.867 32.4414 129.844 32.9336V34.5625C129.883 35.1406 129.992 35.6602 130.172 36.1211C130.352 36.5742 130.629 36.9336 131.004 37.1992C131.379 37.4648 131.871 37.5977 132.48 37.5977C132.926 37.5977 133.301 37.5 133.605 37.3047C133.91 37.1016 134.156 36.8242 134.344 36.4727C134.539 36.1211 134.676 35.7148 134.754 35.2539C134.84 34.793 134.883 34.2969 134.883 33.7656ZM147.211 37.1406V31.4922C147.211 31.0859 147.145 30.7383 147.012 30.4492C146.879 30.1523 146.672 29.9219 146.391 29.7578C146.117 29.5938 145.762 29.5117 145.324 29.5117C144.949 29.5117 144.625 29.5781 144.352 29.7109C144.078 29.8359 143.867 30.0195 143.719 30.2617C143.57 30.4961 143.496 30.7734 143.496 31.0938H140.121C140.121 30.5547 140.246 30.043 140.496 29.5586C140.746 29.0742 141.109 28.6484 141.586 28.2812C142.063 27.9062 142.629 27.6133 143.285 27.4023C143.949 27.1914 144.691 27.0859 145.512 27.0859C146.496 27.0859 147.371 27.25 148.137 27.5781C148.902 27.9062 149.504 28.3984 149.941 29.0547C150.387 29.7109 150.609 30.5312 150.609 31.5156V36.9414C150.609 37.6367 150.652 38.207 150.738 38.6523C150.824 39.0898 150.949 39.4727 151.113 39.8008V40H147.703C147.539 39.6562 147.414 39.2266 147.328 38.7109C147.25 38.1875 147.211 37.6641 147.211 37.1406ZM147.656 32.2773L147.68 34.1875H145.793C145.348 34.1875 144.961 34.2383 144.633 34.3398C144.305 34.4414 144.035 34.5859 143.824 34.7734C143.613 34.9531 143.457 35.1641 143.355 35.4062C143.262 35.6484 143.215 35.9141 143.215 36.2031C143.215 36.4922 143.281 36.7539 143.414 36.9883C143.547 37.2148 143.738 37.3945 143.988 37.5273C144.238 37.6523 144.531 37.7148 144.867 37.7148C145.375 37.7148 145.816 37.6133 146.191 37.4102C146.566 37.207 146.855 36.957 147.059 36.6602C147.27 36.3633 147.379 36.082 147.387 35.8164L148.277 37.2461C148.152 37.5664 147.98 37.8984 147.762 38.2422C147.551 38.5859 147.281 38.9102 146.953 39.2148C146.625 39.5117 146.23 39.7578 145.77 39.9531C145.309 40.1406 144.762 40.2344 144.129 40.2344C143.324 40.2344 142.594 40.0742 141.938 39.7539C141.289 39.4258 140.773 38.9766 140.391 38.4062C140.016 37.8281 139.828 37.1719 139.828 36.4375C139.828 35.7734 139.953 35.1836 140.203 34.668C140.453 34.1523 140.82 33.7188 141.305 33.3672C141.797 33.0078 142.41 32.7383 143.145 32.5586C143.879 32.3711 144.73 32.2773 145.699 32.2773H147.656ZM158.449 37.5977C158.863 37.5977 159.23 37.5195 159.551 37.3633C159.871 37.1992 160.121 36.9727 160.301 36.6836C160.488 36.3867 160.586 36.0391 160.594 35.6406H163.77C163.762 36.5312 163.523 37.3242 163.055 38.0195C162.586 38.707 161.957 39.25 161.168 39.6484C160.379 40.0391 159.496 40.2344 158.52 40.2344C157.535 40.2344 156.676 40.0703 155.941 39.7422C155.215 39.4141 154.609 38.9609 154.125 38.3828C153.641 37.7969 153.277 37.1172 153.035 36.3438C152.793 35.5625 152.672 34.7266 152.672 33.8359V33.4961C152.672 32.5977 152.793 31.7617 153.035 30.9883C153.277 30.207 153.641 29.5273 154.125 28.9492C154.609 28.3633 155.215 27.9062 155.941 27.5781C156.668 27.25 157.52 27.0859 158.496 27.0859C159.535 27.0859 160.445 27.2852 161.227 27.6836C162.016 28.082 162.633 28.6523 163.078 29.3945C163.531 30.1289 163.762 31 163.77 32.0078H160.594C160.586 31.5859 160.496 31.2031 160.324 30.8594C160.16 30.5156 159.918 30.2422 159.598 30.0391C159.285 29.8281 158.898 29.7227 158.438 29.7227C157.945 29.7227 157.543 29.8281 157.23 30.0391C156.918 30.2422 156.676 30.5234 156.504 30.8828C156.332 31.2344 156.211 31.6367 156.141 32.0898C156.078 32.5352 156.047 33.0039 156.047 33.4961V33.8359C156.047 34.3281 156.078 34.8008 156.141 35.2539C156.203 35.707 156.32 36.1094 156.492 36.4609C156.672 36.8125 156.918 37.0898 157.23 37.293C157.543 37.4961 157.949 37.5977 158.449 37.5977ZM171.563 40.2344C170.578 40.2344 169.695 40.0781 168.914 39.7656C168.133 39.4453 167.469 39.0039 166.922 38.4414C166.383 37.8789 165.969 37.2266 165.68 36.4844C165.391 35.7344 165.246 34.9375 165.246 34.0938V33.625C165.246 32.6641 165.383 31.7852 165.656 30.9883C165.93 30.1914 166.32 29.5 166.828 28.9141C167.344 28.3281 167.969 27.8789 168.703 27.5664C169.438 27.2461 170.266 27.0859 171.188 27.0859C172.086 27.0859 172.883 27.2344 173.578 27.5312C174.273 27.8281 174.855 28.25 175.324 28.7969C175.801 29.3438 176.16 30 176.402 30.7656C176.645 31.5234 176.766 32.3672 176.766 33.2969V34.7031H166.688V32.4531H173.449V32.1953C173.449 31.7266 173.363 31.3086 173.191 30.9414C173.027 30.5664 172.777 30.2695 172.441 30.0508C172.105 29.832 171.676 29.7227 171.152 29.7227C170.707 29.7227 170.324 29.8203 170.004 30.0156C169.684 30.2109 169.422 30.4844 169.219 30.8359C169.023 31.1875 168.875 31.6016 168.773 32.0781C168.68 32.5469 168.633 33.0625 168.633 33.625V34.0938C168.633 34.6016 168.703 35.0703 168.844 35.5C168.992 35.9297 169.199 36.3008 169.465 36.6133C169.738 36.9258 170.066 37.168 170.449 37.3398C170.84 37.5117 171.281 37.5977 171.773 37.5977C172.383 37.5977 172.949 37.4805 173.473 37.2461C174.004 37.0039 174.461 36.6406 174.844 36.1562L176.484 37.9375C176.219 38.3203 175.855 38.6875 175.395 39.0391C174.941 39.3906 174.395 39.6797 173.754 39.9062C173.113 40.125 172.383 40.2344 171.563 40.2344ZM184.875 22.9375H191.238C192.543 22.9375 193.664 23.1328 194.602 23.5234C195.547 23.9141 196.273 24.4922 196.781 25.2578C197.289 26.0234 197.543 26.9648 197.543 28.082C197.543 28.9961 197.387 29.7812 197.074 30.4375C196.77 31.0859 196.336 31.6289 195.773 32.0664C195.219 32.4961 194.566 32.8398 193.816 33.0977L192.703 33.6836H187.172L187.148 30.9414H191.262C191.879 30.9414 192.391 30.832 192.797 30.6133C193.203 30.3945 193.508 30.0898 193.711 29.6992C193.922 29.3086 194.027 28.8555 194.027 28.3398C194.027 27.793 193.926 27.3203 193.723 26.9219C193.52 26.5234 193.211 26.2188 192.797 26.0078C192.383 25.7969 191.863 25.6914 191.238 25.6914H188.391V40H184.875V22.9375ZM194.414 40L190.523 32.3945L194.238 32.3711L198.176 39.8359V40H194.414ZM205.875 40.2344C204.891 40.2344 204.008 40.0781 203.227 39.7656C202.445 39.4453 201.781 39.0039 201.234 38.4414C200.695 37.8789 200.281 37.2266 199.992 36.4844C199.703 35.7344 199.559 34.9375 199.559 34.0938V33.625C199.559 32.6641 199.695 31.7852 199.969 30.9883C200.242 30.1914 200.633 29.5 201.141 28.9141C201.656 28.3281 202.281 27.8789 203.016 27.5664C203.75 27.2461 204.578 27.0859 205.5 27.0859C206.398 27.0859 207.195 27.2344 207.891 27.5312C208.586 27.8281 209.168 28.25 209.637 28.7969C210.113 29.3438 210.473 30 210.715 30.7656C210.957 31.5234 211.078 32.3672 211.078 33.2969V34.7031H201V32.4531H207.762V32.1953C207.762 31.7266 207.676 31.3086 207.504 30.9414C207.34 30.5664 207.09 30.2695 206.754 30.0508C206.418 29.832 205.988 29.7227 205.465 29.7227C205.02 29.7227 204.637 29.8203 204.316 30.0156C203.996 30.2109 203.734 30.4844 203.531 30.8359C203.336 31.1875 203.188 31.6016 203.086 32.0781C202.992 32.5469 202.945 33.0625 202.945 33.625V34.0938C202.945 34.6016 203.016 35.0703 203.156 35.5C203.305 35.9297 203.512 36.3008 203.777 36.6133C204.051 36.9258 204.379 37.168 204.762 37.3398C205.152 37.5117 205.594 37.5977 206.086 37.5977C206.695 37.5977 207.262 37.4805 207.785 37.2461C208.316 37.0039 208.773 36.6406 209.156 36.1562L210.797 37.9375C210.531 38.3203 210.168 38.6875 209.707 39.0391C209.254 39.3906 208.707 39.6797 208.066 39.9062C207.426 40.125 206.695 40.2344 205.875 40.2344ZM219.844 37.1406V31.4922C219.844 31.0859 219.777 30.7383 219.645 30.4492C219.512 30.1523 219.305 29.9219 219.023 29.7578C218.75 29.5938 218.395 29.5117 217.957 29.5117C217.582 29.5117 217.258 29.5781 216.984 29.7109C216.711 29.8359 216.5 30.0195 216.352 30.2617C216.203 30.4961 216.129 30.7734 216.129 31.0938H212.754C212.754 30.5547 212.879 30.043 213.129 29.5586C213.379 29.0742 213.742 28.6484 214.219 28.2812C214.695 27.9062 215.262 27.6133 215.918 27.4023C216.582 27.1914 217.324 27.0859 218.145 27.0859C219.129 27.0859 220.004 27.25 220.77 27.5781C221.535 27.9062 222.137 28.3984 222.574 29.0547C223.02 29.7109 223.242 30.5312 223.242 31.5156V36.9414C223.242 37.6367 223.285 38.207 223.371 38.6523C223.457 39.0898 223.582 39.4727 223.746 39.8008V40H220.336C220.172 39.6562 220.047 39.2266 219.961 38.7109C219.883 38.1875 219.844 37.6641 219.844 37.1406ZM220.289 32.2773L220.313 34.1875H218.426C217.98 34.1875 217.594 34.2383 217.266 34.3398C216.938 34.4414 216.668 34.5859 216.457 34.7734C216.246 34.9531 216.09 35.1641 215.988 35.4062C215.895 35.6484 215.848 35.9141 215.848 36.2031C215.848 36.4922 215.914 36.7539 216.047 36.9883C216.18 37.2148 216.371 37.3945 216.621 37.5273C216.871 37.6523 217.164 37.7148 217.5 37.7148C218.008 37.7148 218.449 37.6133 218.824 37.4102C219.199 37.207 219.488 36.957 219.691 36.6602C219.902 36.3633 220.012 36.082 220.02 35.8164L220.91 37.2461C220.785 37.5664 220.613 37.8984 220.395 38.2422C220.184 38.5859 219.914 38.9102 219.586 39.2148C219.258 39.5117 218.863 39.7578 218.402 39.9531C217.941 40.1406 217.395 40.2344 216.762 40.2344C215.957 40.2344 215.227 40.0742 214.57 39.7539C213.922 39.4258 213.406 38.9766 213.023 38.4062C212.648 37.8281 212.461 37.1719 212.461 36.4375C212.461 35.7734 212.586 35.1836 212.836 34.668C213.086 34.1523 213.453 33.7188 213.938 33.3672C214.43 33.0078 215.043 32.7383 215.777 32.5586C216.512 32.3711 217.363 32.2773 218.332 32.2773H220.289ZM229.406 22V40H226.02V22H229.406ZM238.406 27.3203V29.7109H231.023V27.3203H238.406ZM232.852 24.1914H236.227V36.1797C236.227 36.5469 236.273 36.8281 236.367 37.0234C236.469 37.2188 236.617 37.3555 236.813 37.4336C237.008 37.5039 237.254 37.5391 237.551 37.5391C237.762 37.5391 237.949 37.5312 238.113 37.5156C238.285 37.4922 238.43 37.4688 238.547 37.4453L238.559 39.9297C238.27 40.0234 237.957 40.0977 237.621 40.1523C237.285 40.207 236.914 40.2344 236.508 40.2344C235.766 40.2344 235.117 40.1133 234.563 39.8711C234.016 39.6211 233.594 39.2227 233.297 38.6758C233 38.1289 232.852 37.4102 232.852 36.5195V24.1914ZM244.09 38.5703L247.453 27.3203H251.074L245.977 41.9102C245.867 42.2305 245.719 42.5742 245.531 42.9414C245.352 43.3086 245.105 43.6562 244.793 43.9844C244.488 44.3203 244.102 44.5938 243.633 44.8047C243.172 45.0156 242.605 45.1211 241.934 45.1211C241.613 45.1211 241.352 45.1016 241.148 45.0625C240.945 45.0234 240.703 44.9688 240.422 44.8984V42.4258C240.508 42.4258 240.598 42.4258 240.691 42.4258C240.785 42.4336 240.875 42.4375 240.961 42.4375C241.406 42.4375 241.77 42.3867 242.051 42.2852C242.332 42.1836 242.559 42.0273 242.73 41.8164C242.902 41.6133 243.039 41.3477 243.141 41.0195L244.09 38.5703ZM242.684 27.3203L245.438 36.5078L245.918 40.082L243.621 40.3281L239.063 27.3203H242.684Z" fill="#455A64"/>
</svg>
